<svg width="614" height="110" viewBox="0 0 614 110" fill="none" xmlns="http://www.w3.org/2000/svg">
<path d="M131 92.5877V17H155.027C160.996 17 165.598 17.6964 168.831 19.0893C172.065 20.5319 174.602 22.7456 176.442 25.7303C178.283 28.6652 179.203 31.9235 179.203 35.5052C179.203 38.8878 178.382 41.9472 176.741 44.6832C175.099 47.4191 172.686 49.6328 169.503 51.3241C173.482 52.717 176.517 54.3088 178.606 56.0997C180.695 57.8905 182.337 60.0544 183.531 62.5914C184.725 65.1284 185.322 67.8892 185.322 70.874C185.322 76.9926 183.108 82.1412 178.681 86.3198C174.204 90.4984 168.234 92.5877 160.772 92.5877H131ZM156.221 24.3871H138.387V48.6379H151.744C157.017 48.6379 160.872 48.1404 163.309 47.1455C165.797 46.1506 167.762 44.6085 169.204 42.5192C170.647 40.4299 171.368 38.0919 171.368 35.5052C171.368 32.023 170.149 29.287 167.712 27.2972C165.324 25.3572 161.494 24.3871 156.221 24.3871ZM151.744 56.1743H138.387V85.2005H156.818C162.339 85.2005 166.394 84.6533 168.98 83.559C171.517 82.5143 173.582 80.8478 175.174 78.5596C176.716 76.2713 177.487 73.7592 177.487 71.0232C177.487 67.6903 176.392 64.7802 174.204 62.2929C172.015 59.7559 169.005 58.0397 165.175 57.1443C162.588 56.4976 158.111 56.1743 151.744 56.1743ZM224.197 34.2367C232.803 34.2367 239.942 37.3457 245.613 43.5639C250.886 49.2348 253.522 55.9753 253.522 63.7853C253.572 83.1361 253.572 92.9608 253.522 93.2592C250.239 93.2592 247.702 93.2592 245.911 93.2592C245.911 93.0105 245.911 88.7573 245.911 80.4996C241.932 87.9614 234.694 92.1151 224.197 92.9608C215.641 92.9608 208.652 90.0507 203.23 84.2305C197.808 78.4103 195.097 71.5953 195.097 63.7853C195.097 56.025 197.658 49.3094 202.782 43.6385C208.453 37.3706 215.592 34.2367 224.197 34.2367ZM224.197 41.2507C218.278 41.2507 213.154 43.4644 208.826 47.8917C204.548 52.319 202.409 57.6666 202.409 63.9345C202.409 67.9639 203.503 71.844 205.692 75.5749C207.881 79.3057 211.612 82.4646 216.885 85.0513C230.018 87.9863 239.345 82.0169 244.867 67.1431C245.165 62.4173 244.668 57.8656 243.374 53.488C242.379 51.548 241.061 49.6825 239.419 47.8917C235.241 43.4644 230.167 41.2507 224.197 41.2507ZM266.506 62.5914V35.6544H273.744V61.7706C273.744 68.138 274.092 72.5155 274.788 74.9033C275.783 78.3357 277.723 81.0468 280.608 83.0366C283.494 85.0264 286.976 86.0213 291.055 86.0213C295.034 86.0213 298.417 85.0513 301.203 83.1113C303.989 81.1712 305.929 78.6342 307.023 75.5002C307.769 73.3612 308.142 68.7847 308.142 61.7706V35.6544H315.455V63.1137C315.455 70.874 314.559 76.6941 312.769 80.5742C310.928 84.4544 308.217 87.4888 304.635 89.6776C301.004 91.8664 296.477 92.9608 291.055 92.9608C285.583 92.9608 281.031 91.8664 277.4 89.6776C273.719 87.4888 270.983 84.4046 269.192 80.425C267.401 76.4951 266.506 70.5506 266.506 62.5914ZM331.274 92.9608V71.247V62.2929C331.871 54.6819 333.463 49.1105 336.049 45.5786C338.188 42.3451 340.999 39.7833 344.481 37.8929C346.769 36.4503 350.028 35.6793 354.256 35.5798C356.942 35.5798 359.678 36.0772 362.464 37.0722C365.25 38.1168 367.414 39.4848 368.956 41.1761C370.498 42.8675 372.04 45.4045 373.582 48.7871C374.477 46.6481 376.268 44.1111 378.954 41.1761C380.298 40.032 382.014 38.9127 384.103 37.8183C385.546 36.9229 388.879 36.1767 394.102 35.5798C397.932 35.5798 401.638 36.5498 405.22 38.4899C408.802 40.3802 411.314 43.0913 412.756 46.6232C414.199 50.1551 414.92 55.4032 414.92 62.3675V92.9608H407.608V62.3675C407.608 56.3981 407.185 52.2942 406.339 50.0556C405.493 47.8171 404.026 46.0014 401.937 44.6085C399.847 43.2157 397.335 42.5192 394.4 42.5192C388.928 42.9172 384.227 45.6034 380.298 50.5779C378.755 52.6672 377.611 57.3433 376.865 64.6061V92.9608H369.627V64.233C369.627 57.5174 368.881 52.9408 367.389 50.5033C365.896 48.0658 364.106 46.1258 362.016 44.6832C359.977 43.2405 357.39 42.5192 354.256 42.5192C350.923 42.5192 348.063 43.3649 345.675 45.0562C343.287 46.7973 341.422 49.3592 340.079 52.7419C338.686 56.1245 338.139 61.6214 338.437 69.2324V92.9608H331.274ZM431.187 92.8115V17.1492H474.54V24.611H438.723V48.2648H460.586V55.652H438.723V85.3498H474.241V92.8115H431.187ZM508.789 93.0354L483.046 37.0722H490.657L509.386 77.8134L527.966 37.0722H535.651L510.058 93.0354H508.789ZM576.915 17H578.706L614 92.5877H605.941L594.003 67.6654H561.395L549.605 92.5877H541.099L576.915 17ZM590.645 60.4275L577.81 32.9682L564.752 60.4275H590.645Z" fill="url(#paint0_linear_17_2)"/>
<path d="M40.6853 3.03585C35.9608 7.28908 36.0237 7.15113 35.9567 13.4818C35.8912 19.822 35.7532 19.6131 39.8548 19.3699C44.0562 19.12 44.2173 18.87 44.1231 12.7647L44.0794 9.90876L46.9804 7.12518L49.8815 4.34159L47.6265 2.05791C44.7883 -0.817188 44.9986 -0.847237 40.6853 3.03585Z" fill="url(#paint1_linear_17_2)"/>
<path d="M63.003 2.74081C61.812 3.95641 61.2425 4.79231 61.4105 5.07777C62.0825 6.21415 64.2801 8.83656 66.0461 10.6094C68.4951 13.0679 70.171 15.058 70.72 16.1588C71.4453 17.6135 72.8576 18.0587 76.7325 18.0587C81.8243 18.0587 82.5209 17.2665 79.9203 14.4228C79.1063 13.5323 77.9522 12.2621 77.3539 11.601C73.591 7.43111 66.4204 0.820442 65.6733 0.832735C65.1556 0.842297 64.179 1.54024 63.003 2.74081Z" fill="url(#paint2_linear_17_2)"/>
<path d="M59.2854 13.1553C58.7104 13.4121 56.1987 15.6562 53.7033 18.142C51.2079 20.6279 48.6619 22.9238 48.0432 23.2434L46.9205 23.8239L46.8945 26.6881C46.8809 28.2643 46.8413 37.063 46.8071 46.2415C46.7429 64.037 46.7156 64.2815 45.1026 61.868C44.6177 61.1428 42.7916 59.0845 41.0433 57.2925C39.295 55.5019 37.865 53.9052 37.865 53.7454C37.865 52.7961 28.6578 43.2858 26.7771 42.2914C26.3305 42.0552 25.7459 41.3395 25.4795 40.703C24.3131 37.9112 22.767 37.5588 20.8425 39.6458C18.8975 41.756 18.8224 43.4756 20.6103 44.9494C21.2727 45.4957 22.0499 46.5064 22.3381 47.1962C22.6495 47.9406 23.3707 48.7505 24.1123 49.1876C24.8731 49.6369 25.5738 50.4346 25.9057 51.2322C26.2048 51.952 27.7263 53.7946 29.2848 55.327C30.8432 56.8595 32.5327 58.661 33.0381 59.3317C33.5448 60.0023 35.2289 61.8626 36.7832 63.4647C38.3362 65.0682 39.6064 66.5146 39.6064 66.6799C39.6064 66.8465 40.3167 67.7234 41.1853 68.6303C42.054 69.5372 42.8544 70.6313 42.9623 71.0615C43.0716 71.5 43.8323 72.2402 44.6887 72.7415C46.9833 74.0855 48.0063 76.7461 46.2294 76.7461C44.7024 76.7461 44.3295 79.4095 45.7677 80.0406C46.7784 80.4858 47.4832 83.3636 46.579 83.3636C46.2553 83.3636 39.9301 77.1586 36.3516 73.3288C35.4228 72.3345 34.5351 71.5218 34.3793 71.5218C33.7442 71.5218 30.5509 68.6754 30.5509 68.1086C30.5509 66.3425 29.6904 65.9492 25.836 65.9492C20.2101 65.9492 20.221 67.4448 25.8866 73.1526C27.9107 75.1905 29.7027 77.2187 29.8707 77.6599C30.0387 78.1011 30.809 78.8618 31.5821 79.3494C32.3565 79.8384 32.9889 80.4626 32.9889 80.7358C32.9889 81.558 34.4408 82.9075 36.3953 83.9031C38.313 84.8811 39.0451 85.7402 38.7091 86.6171C38.5916 86.923 39.0205 87.7002 39.7553 88.5129L40.9996 89.891V99.1227C40.9996 106.094 41.1061 108.439 41.4353 108.699C42.6208 109.633 48.8846 110.084 49.9417 109.311C50.4853 108.913 50.5577 107.763 50.6902 97.4236C50.7708 91.1271 50.9743 83.9387 51.1423 81.4474C51.3089 78.9574 51.4892 72.9682 51.5398 68.1372C51.6067 61.9746 51.7569 59.232 52.0438 58.9451C52.5983 58.3906 53.0149 60.0201 52.6543 61.334C52.209 62.9593 52.489 108.886 52.9466 109.438C53.4438 110.037 56.9854 109.746 57.4252 109.07C57.5877 108.819 57.7079 98.0382 57.6929 85.1106L57.6642 61.6058L58.649 60.8368C61.117 58.9069 65.7281 53.8369 65.7281 53.0515C65.7281 52.1323 61.9488 46.7933 61.2973 46.7933C60.3549 46.7933 58.4441 48.5033 57.626 50.0781C56.7491 51.7676 52.2937 56.7188 52.0315 56.2954C51.9386 56.1438 52.0001 54.1674 52.1694 51.9029C52.3388 49.6369 52.5191 43.5726 52.5723 38.4234C52.6652 29.2968 52.6857 29.0578 53.3864 28.8816C53.7811 28.7833 54.7222 27.8928 55.4761 26.9039C57.2258 24.6106 62.8721 18.829 63.8993 18.28C64.3309 18.0491 64.6833 17.6981 64.6833 17.5001C64.6833 17.1245 60.8084 12.6513 60.5038 12.6746C60.4082 12.6828 59.8591 12.8986 59.2854 13.1553Z" fill="url(#paint3_linear_17_2)"/>
<path d="M24.8854 19.079C23.6289 19.7469 22.5225 19.9764 19.6119 20.1717C17.5864 20.3069 15.793 20.5924 15.625 20.8054C15.0814 21.4993 14.8301 26.1199 15.315 26.5133C16.1481 27.188 26.1584 27.4434 26.6897 26.8028C27.3521 26.0038 27.8493 26.1049 28.9597 27.2631C29.4965 27.8245 30.3488 28.4555 30.8528 28.6658C32.4795 29.3447 33.0436 31.3361 33.3318 37.399C33.6773 44.7008 34.2496 45.7607 37.8964 45.8713C40.6868 45.956 40.7674 45.7607 41.0652 38.2172L41.3192 31.7403L40.3058 29.7312C39.6925 28.5183 38.5329 27.0473 37.3788 26.0175C36.3271 25.0805 35.0008 23.6696 34.4299 22.8829C31.3677 18.6556 28.1184 17.3594 24.8854 19.079Z" fill="url(#paint4_linear_17_2)"/>
<path d="M79.8998 20.1444C73.2414 20.7426 71.463 21.92 72.3331 25.1516C72.822 26.9709 72.3699 26.8971 83.6204 26.9913C92.7756 27.0692 93.3561 27.0364 93.8082 26.4177C94.4201 25.5832 94.4665 20.6415 93.8696 20.0447C93.3315 19.5065 86.4449 19.5557 79.8998 20.1444Z" fill="url(#paint5_linear_17_2)"/>
<path d="M10.7624 29.5522C10.1929 30.0317 9.53179 30.4237 9.29277 30.4237C9.05374 30.4237 8.05668 31.1011 7.07874 31.9274C6.1008 32.7551 4.5574 33.9366 3.65048 34.5526C1.64816 35.9143 1.16055 36.7448 1.45284 38.2977C1.59216 39.0407 1.48426 39.9026 1.16192 40.6115C0.697532 41.6386 -0.0400222 50.3308 0.179878 52.1911C0.323291 53.4039 1.28484 53.7932 3.86765 53.6853L6.27153 53.5842L7.35191 51.5191C8.50058 49.3228 8.49102 49.4334 8.06897 43.2858C7.83132 39.8261 7.8518 39.7947 10.7583 39.1691C13.2223 38.6392 13.4845 38.0519 13.4845 33.0529C13.4845 28.5169 12.8945 27.7589 10.7624 29.5522Z" fill="url(#paint6_linear_17_2)"/>
<path d="M60.1252 31.5013C55.5332 36.5959 55.7026 39.5256 60.5964 39.6089L63.2475 39.6526L64.9316 37.776L66.6156 35.898L71.1939 35.8583C76.4155 35.8146 76.3759 35.8324 76.2762 33.5173C76.2366 32.5694 76.3432 31.4235 76.5153 30.97C77.1982 29.1753 76.6313 29.0168 69.2531 28.9322L62.5099 28.8557L60.1252 31.5013Z" fill="url(#paint7_linear_17_2)"/>
<path d="M95.9663 29.4908C95.3148 30.1436 94.7863 37.2528 95.3408 37.9207C95.5361 38.157 96.5455 38.4193 97.5821 38.5053C100.557 38.7525 101.467 40.8067 100.076 44.1353C99.7825 44.8387 99.7115 45.4943 99.8931 45.8194C100.097 46.1841 99.9737 46.5487 99.5039 46.9749C97.7624 48.5511 98.6967 50.0125 103.336 52.9737C107.689 55.7504 109.989 53.0269 108.156 47.2658C107.512 45.2444 107.408 44.1831 107.474 40.3492C107.56 35.2546 107.674 35.5633 105.085 33.8792C102.328 32.0845 101.864 31.7717 100.093 30.5056C98.1531 29.1206 96.6957 28.7614 95.9663 29.4908Z" fill="url(#paint8_linear_17_2)"/>
<path d="M84.1967 39.3481C83.5862 40.0419 82.9251 40.9434 82.727 41.3504C82.5276 41.7574 81.3626 42.9539 80.1388 44.007C78.9136 45.06 77.6543 46.3931 77.3402 46.9667C77.0247 47.5418 76.0959 48.6044 75.275 49.3283C74.4555 50.0522 73.1935 51.4467 72.4737 52.4274C71.7539 53.4094 70.8429 54.5485 70.4495 54.9596C70.0548 55.3721 68.3229 57.3977 66.5992 59.4615C64.8741 61.5266 62.8104 63.9783 62.0113 64.9112C60.5157 66.6567 60.065 68.2943 60.1934 71.5218C60.2194 72.1925 60.0814 75.7191 59.8847 79.3577C59.4572 87.2987 59.7017 108.415 60.2276 109.05C60.7124 109.634 62.3009 109.601 63.1368 108.991C63.7664 108.531 63.8197 107.945 63.9208 100.371C64.0219 92.8781 64.2281 91.1531 64.9383 91.8606C65.0858 92.0081 65.2839 95.8365 65.3795 100.371L65.5543 108.614L67.2821 108.552C69.9209 108.456 69.9073 108.507 69.9086 99.0572C69.9114 90.2721 70.1476 88.5552 71.4739 87.6865C71.9328 87.3847 72.8001 86.3726 73.4024 85.4356C74.0034 84.4987 75.0155 83.4101 75.6506 83.0181C77.067 82.1426 79.2305 79.792 79.6594 78.6597C79.8342 78.2008 80.4556 77.5766 81.0402 77.2747C81.6248 76.9729 83.5315 75.3284 85.2784 73.6225L88.4526 70.5207L88.2068 68.8871C87.8025 66.1869 87.9814 66.2975 83.985 66.2975H80.3737L79.8547 67.3C79.5706 67.8518 79.0953 68.3954 78.8016 68.5088C78.5066 68.6208 78.2662 68.9377 78.2662 69.2122C78.2662 69.4867 77.2391 70.5452 75.9839 71.5628C74.7287 72.5817 73.3943 73.912 73.0186 74.5198C72.643 75.1276 71.6173 76.2149 70.7391 76.9347C69.8212 77.6859 68.8706 78.8741 68.5059 79.7264C67.8585 81.2357 66.6675 82.0047 66.0037 81.3409C65.7811 81.1182 65.736 79.4232 65.8794 76.6915C66.0051 74.3273 66.0993 71.5956 66.0897 70.6204C66.0692 68.6932 66.5773 67.9543 68.1822 67.5745C69.4852 67.2659 71.4247 65.6501 72.6704 63.8349C74.4309 61.2685 80.3382 55.521 82.1698 54.5936C84.0082 53.6607 84.2855 52.8781 83.1423 51.8428C82.1124 50.9113 82.2531 50.5357 84.4029 48.4856C91.0027 42.1945 90.7377 42.7627 88.3393 40.0706C86.2673 37.7473 85.6895 37.6463 84.1967 39.3481Z" fill="url(#paint9_linear_17_2)"/>
<path d="M15.226 51.5764C13.4012 51.911 13.3698 52.049 13.628 58.4561C13.8274 63.4401 13.9599 64.4549 14.4584 64.8414C15.241 65.4492 20.9147 65.2758 21.5649 64.6256C22.1289 64.0616 22.4035 58.2868 21.909 57.3648C21.6454 56.8731 21.7247 56.5126 22.2328 55.8843C24.3266 53.2987 20.0761 50.6845 15.226 51.5764Z" fill="url(#paint10_linear_17_2)"/>
<path d="M90.1862 51.5683C88.5048 51.8906 88.2836 52.8849 88.5527 58.8823C88.8531 65.5422 88.6633 65.2526 92.7212 65.2526C97.1738 65.2526 96.9772 65.743 96.4745 55.9007C96.2437 51.4044 95.1101 50.6231 90.1862 51.5683Z" fill="url(#paint11_linear_17_2)"/>
<path d="M0.677118 62.5537C0.11166 63.2462 -0.269409 71.7663 0.235952 72.3769C0.466779 72.6541 1.38599 72.9765 2.28062 73.0912C5.0082 73.4463 8.60855 74.6838 8.60855 75.2683C8.60855 75.5565 9.12211 76.2818 9.74903 76.8787C10.3773 77.4769 11.2556 78.4835 11.7022 79.1159C12.1488 79.7497 13.1213 80.6511 13.8629 81.1182C14.6046 81.5867 15.5115 82.5578 15.8789 83.2763C16.245 83.9947 17.2174 85.1311 18.0397 85.8017C22.2629 89.2464 25.6747 88.7219 25.6747 84.6257V82.4445L23.4279 79.8562C22.1918 78.433 20.699 76.9552 20.1089 76.5714C19.5189 76.1889 18.9466 75.5279 18.8387 75.1044C18.7294 74.6797 18.3497 74.2412 17.996 74.1292C16.7094 73.7208 15.2261 71.9835 15.2261 70.8854C15.2261 69.0456 12.7252 67.0023 10.4661 66.9982C8.18105 66.9927 5.83726 65.8454 3.74753 63.7065C2.16862 62.0921 1.31497 61.7711 0.677118 62.5537Z" fill="url(#paint12_linear_17_2)"/>
<path d="M105.608 64.4358C104.458 65.146 103.144 66.0133 102.686 66.3616C102.147 66.7728 101.262 66.994 100.162 66.994C98.1434 66.994 97.3676 67.7097 94.9596 71.7922C94.5895 72.4191 93.8997 73.0788 93.4272 73.2591C92.4328 73.6375 90.425 75.7682 88.8147 78.1557C88.2001 79.068 87.5554 79.8684 87.3833 79.934C86.3917 80.3164 84.1873 83.4906 84.1873 84.5382C84.1873 87.3341 88.4487 88.9786 90.3499 86.9162C91.6693 85.4848 95.5715 82.4007 96.3951 82.1398C96.7953 82.0114 97.2051 81.3859 97.4277 80.5582C97.7979 79.1841 98.3947 78.4507 100.428 76.8745C101.039 76.4019 101.61 75.5742 101.726 74.9951C101.895 74.1483 102.108 73.9584 102.899 73.9516C103.431 73.9475 104.549 73.6347 105.384 73.255C106.218 72.8767 107.18 72.5666 107.519 72.5666C108.607 72.5666 108.832 71.7772 108.962 67.5158C109.115 62.5209 108.949 62.3679 105.608 64.4358Z" fill="url(#paint13_linear_17_2)"/>
<defs>
<linearGradient id="paint0_linear_17_2" x1="372.5" y1="17" x2="372.5" y2="93.2592" gradientUnits="userSpaceOnUse">
<stop stop-color="#282FCA"/>
<stop offset="1" stop-color="#00C4EE"/>
</linearGradient>
<linearGradient id="paint1_linear_17_2" x1="42.9091" y1="19.4601" x2="42.9091" y2="4.95911e-05" gradientUnits="userSpaceOnUse">
<stop stop-color="#000A68"/>
<stop offset="1" stop-color="#00C4EE"/>
</linearGradient>
<linearGradient id="paint2_linear_17_2" x1="71.3894" y1="18.0587" x2="71.3894" y2="0.832718" gradientUnits="userSpaceOnUse">
<stop stop-color="#000A68"/>
<stop offset="1" stop-color="#00C4EE"/>
</linearGradient>
<linearGradient id="paint3_linear_17_2" x1="42.5262" y1="109.763" x2="42.5262" y2="12.6745" gradientUnits="userSpaceOnUse">
<stop stop-color="#000A68"/>
<stop offset="1" stop-color="#00C4EE"/>
</linearGradient>
<linearGradient id="paint4_linear_17_2" x1="28.1879" y1="45.8827" x2="28.1879" y2="18.3416" gradientUnits="userSpaceOnUse">
<stop stop-color="#000A68"/>
<stop offset="1" stop-color="#00C4EE"/>
</linearGradient>
<linearGradient id="paint5_linear_17_2" x1="83.2104" y1="27.0217" x2="83.2104" y2="19.6701" gradientUnits="userSpaceOnUse">
<stop stop-color="#000A68"/>
<stop offset="1" stop-color="#00C4EE"/>
</linearGradient>
<linearGradient id="paint6_linear_17_2" x1="6.81221" y1="53.7025" x2="6.81221" y2="28.6543" gradientUnits="userSpaceOnUse">
<stop stop-color="#000A68"/>
<stop offset="1" stop-color="#00C4EE"/>
</linearGradient>
<linearGradient id="paint7_linear_17_2" x1="66.7653" y1="39.6526" x2="66.7653" y2="28.8557" gradientUnits="userSpaceOnUse">
<stop stop-color="#000A68"/>
<stop offset="1" stop-color="#00C4EE"/>
</linearGradient>
<linearGradient id="paint8_linear_17_2" x1="101.95" y1="54.0684" x2="101.95" y2="29.1219" gradientUnits="userSpaceOnUse">
<stop stop-color="#000A68"/>
<stop offset="1" stop-color="#00C4EE"/>
</linearGradient>
<linearGradient id="paint9_linear_17_2" x1="74.7787" y1="109.469" x2="74.7787" y2="38.1841" gradientUnits="userSpaceOnUse">
<stop stop-color="#000A68"/>
<stop offset="1" stop-color="#00C4EE"/>
</linearGradient>
<linearGradient id="paint10_linear_17_2" x1="18.146" y1="65.2164" x2="18.146" y2="51.3982" gradientUnits="userSpaceOnUse">
<stop stop-color="#000A68"/>
<stop offset="1" stop-color="#00C4EE"/>
</linearGradient>
<linearGradient id="paint11_linear_17_2" x1="92.593" y1="65.2567" x2="92.593" y2="51.2136" gradientUnits="userSpaceOnUse">
<stop stop-color="#000A68"/>
<stop offset="1" stop-color="#00C4EE"/>
</linearGradient>
<linearGradient id="paint12_linear_17_2" x1="12.8374" y1="88.0774" x2="12.8374" y2="62.1456" gradientUnits="userSpaceOnUse">
<stop stop-color="#000A68"/>
<stop offset="1" stop-color="#00C4EE"/>
</linearGradient>
<linearGradient id="paint13_linear_17_2" x1="96.5936" y1="87.8417" x2="96.5936" y2="63.1843" gradientUnits="userSpaceOnUse">
<stop stop-color="#000A68"/>
<stop offset="1" stop-color="#00C4EE"/>
</linearGradient>
</defs>
</svg>
